<?xml version="1.0" ?><!DOCTYPE svg  PUBLIC '-//W3C//DTD SVG 1.1//EN'
        'http://www.w3.org/Graphics/SVG/1.1/DTD/svg11.dtd'>
<svg xmlns:xlink="http://www.w3.org/1999/xlink" enable-background="new 0 0 100 100" height="100%" version="1.1"
     viewBox="0 0 100 100"
     width="100%" xml:space="preserve" xmlns="http://www.w3.org/2000/svg">
    <g id="cor">
        <g>
            <path d="M32.111,15.553c-1.851,0-3.396,1.273-3.844,2.986h-1.304c-0.272-1.32-0.922-2.534-1.897-3.51    c-0.975-0.975-2.187-1.623-3.506-1.895L21.56,11.83c0.681-0.177,1.31-0.518,1.819-1.027c0.753-0.753,1.166-1.755,1.164-2.817    c0.001-1.063-0.412-2.064-1.164-2.816C22.627,4.415,21.625,4,20.559,4c-2.195,0-3.983,1.787-3.986,3.985    c0,1.851,1.274,3.397,2.987,3.845l0.001,1.186c-1.312,0.106-2.546,0.579-3.591,1.363l-2.966-2.966    c0.895-1.527,0.701-3.521-0.606-4.829c-0.753-0.753-1.753-1.168-2.818-1.168c-1.064,0-2.065,0.415-2.818,1.168    C6.008,7.336,5.594,8.337,5.594,9.401s0.414,2.065,1.167,2.819c0.754,0.753,1.755,1.168,2.818,1.168    c0.721,0,1.405-0.204,2.011-0.562l2.967,2.967c-1.84,2.464-1.84,5.87,0,8.333l-2.976,2.976c-1.516-0.854-3.557-0.665-4.82,0.598    c-0.753,0.753-1.168,1.753-1.168,2.818c0,1.064,0.415,2.065,1.168,2.818c0.752,0.753,1.753,1.168,2.817,1.168    s2.065-0.415,2.819-1.168c0.753-0.753,1.168-1.754,1.168-2.818c0-0.722-0.204-1.406-0.562-2.011l2.966-2.966    c0.933,0.698,2.014,1.146,3.167,1.312v1.415c-1.713,0.448-2.986,1.994-2.986,3.843c0,2.198,1.788,3.986,3.986,3.986    s3.986-1.788,3.986-3.986c0-1.851-1.273-3.396-2.986-3.844v-1.414c1.482-0.212,2.853-0.886,3.93-1.963    c1.18-1.18,1.881-2.708,2.016-4.352h1.186c0.447,1.713,1.993,2.986,3.844,2.986c2.198,0,3.986-1.788,3.986-3.986    S34.31,15.553,32.111,15.553z M18.572,7.986C18.573,6.892,19.465,6,20.559,6c0.531,0,1.03,0.207,1.405,0.582    c0.374,0.374,0.58,0.872,0.579,1.404c0.001,0.53-0.205,1.028-0.579,1.403c-0.375,0.375-0.874,0.582-1.404,0.583    C19.464,9.972,18.572,9.08,18.572,7.986z M8.175,10.807C7.8,10.432,7.594,9.933,7.594,9.401C7.593,8.871,7.8,8.373,8.175,7.998    c0.376-0.375,0.874-0.582,1.404-0.582s1.029,0.206,1.404,0.582c0.774,0.774,0.774,2.034,0,2.809    C10.233,11.557,8.925,11.557,8.175,10.807z M10.983,31.923c-0.749,0.75-2.058,0.751-2.809,0c-0.375-0.376-0.582-0.874-0.582-1.404    s0.206-1.029,0.582-1.404s0.875-0.582,1.404-0.582c0.53,0,1.029,0.207,1.404,0.582c0.376,0.375,0.582,0.874,0.582,1.404    S11.358,31.547,10.983,31.923z M22.123,32.111c0,1.096-0.891,1.986-1.986,1.986s-1.986-0.891-1.986-1.986    c0-1.094,0.892-1.985,1.986-1.986C21.232,30.125,22.123,31.016,22.123,32.111z M23.652,23.477    c-0.938,0.939-2.188,1.456-3.516,1.456s-2.576-0.518-3.516-1.456c-1.937-1.938-1.938-5.092-0.002-7.031    c0.001,0,0.002,0,0.002-0.001c0.001-0.001,0.001-0.002,0.001-0.002c0.939-0.938,2.188-1.455,3.515-1.455    c1.328,0,2.577,0.517,3.516,1.456c0.939,0.94,1.458,2.189,1.458,3.517C25.11,21.288,24.592,22.537,23.652,23.477z M32.111,21.525    c-1.096,0-1.986-0.891-1.986-1.986s0.891-1.986,1.986-1.986s1.986,0.891,1.986,1.986S33.207,21.525,32.111,21.525z"
                  fill="black"/>
            <path
                    d="M86.682,21.381h1.312c0.447,1.713,1.993,2.986,3.844,2.986c2.198,0,3.986-1.788,3.986-3.986    s-1.788-3.986-3.986-3.986c-1.851,0-3.396,1.273-3.844,2.986h-1.189c-0.132-1.588-0.799-3.139-2.011-4.352    c-1.18-1.18-2.709-1.88-4.354-2.014l0.001-1.186c1.713-0.447,2.987-1.994,2.987-3.846C83.425,5.787,81.637,4,79.441,4    c-1.066,0-2.068,0.415-2.82,1.169c-0.752,0.752-1.165,1.753-1.164,2.813c-0.002,1.065,0.411,2.067,1.164,2.82    c0.51,0.51,1.139,0.851,1.819,1.027l-0.001,1.305c-0.995,0.205-1.926,0.631-2.743,1.244l-2.967-2.967    c0.357-0.605,0.562-1.29,0.562-2.011c0.001-1.064-0.414-2.065-1.169-2.819c-0.753-0.752-1.754-1.166-2.818-1.166    c-1.065,0-2.065,0.414-2.817,1.167c-1.553,1.554-1.554,4.082-0.001,5.637c0.753,0.752,1.755,1.167,2.819,1.167    c0.721,0,1.405-0.204,2.011-0.561l2.967,2.967c-0.898,1.198-1.392,2.644-1.392,4.167c0,1.862,0.726,3.613,2.043,4.931    c1.077,1.077,2.447,1.751,3.93,1.963v1.414c-1.713,0.447-2.986,1.993-2.986,3.844c0,2.198,1.788,3.986,3.986,3.986    s3.986-1.788,3.986-3.986c0-1.849-1.273-3.395-2.986-3.843v-1.415c1.153-0.165,2.234-0.613,3.167-1.312l2.966,2.966    c-0.357,0.604-0.562,1.289-0.562,2.011c0,1.064,0.415,2.065,1.168,2.818c0.754,0.753,1.755,1.168,2.819,1.168    s2.065-0.415,2.817-1.168c0.753-0.753,1.168-1.754,1.168-2.818c0-1.065-0.415-2.065-1.168-2.818    c-1.265-1.263-3.305-1.452-4.821-0.599l-2.975-2.975C86.064,23.295,86.48,22.357,86.682,21.381z M91.837,18.395    c1.096,0,1.986,0.891,1.986,1.986s-0.891,1.986-1.986,1.986s-1.986-0.891-1.986-1.986S90.741,18.395,91.837,18.395z M77.457,7.983    c-0.001-0.529,0.205-1.027,0.579-1.401C78.411,6.207,78.91,6,79.441,6c1.094,0,1.985,0.892,1.986,1.985    c0,1.095-0.892,1.986-1.987,1.987c-0.53-0.001-1.029-0.208-1.404-0.583C77.662,9.015,77.456,8.517,77.457,7.983z M67.899,10.806    c-0.773-0.774-0.772-2.034,0.001-2.809c0.375-0.375,0.873-0.581,1.403-0.581s1.03,0.206,1.405,0.581    c0.376,0.376,0.582,0.874,0.582,1.404c0,0.529-0.207,1.028-0.582,1.404c-0.375,0.374-0.873,0.581-1.404,0.581    S68.274,11.18,67.899,10.806z M74.891,19.96c-0.001-1.327,0.518-2.576,1.457-3.517c0.938-0.939,2.188-1.456,3.516-1.456    s2.576,0.518,3.516,1.456c1.938,1.939,1.938,5.095,0,7.033c-0.939,0.938-2.188,1.456-3.516,1.456s-2.577-0.517-3.516-1.456    C75.408,22.537,74.891,21.288,74.891,19.96z M81.85,32.111c0,1.096-0.891,1.986-1.986,1.986s-1.986-0.891-1.986-1.986    s0.891-1.986,1.985-1.986C80.958,30.126,81.85,31.018,81.85,32.111z M90.421,28.532c0.529,0,1.028,0.207,1.404,0.582    s0.582,0.874,0.582,1.404s-0.207,1.028-0.582,1.404c-0.75,0.751-2.059,0.75-2.809,0c-0.375-0.376-0.582-0.874-0.582-1.404    s0.206-1.029,0.582-1.404C89.392,28.739,89.891,28.532,90.421,28.532z"
                    fill="black"/>
            <g><path d="M62.819,36.5c-0.39-0.391-0.39-1.021,0-1.41l0,0c0.391-0.39,1.021-0.39,1.41,0l0,0     c0.391,0.39,0.391,1.02,0,1.41l0,0c-0.189,0.2-0.449,0.29-0.699,0.29l0,0C63.27,36.79,63.01,36.7,62.819,36.5z M64.939,34.38     c-0.39-0.39-0.39-1.021,0-1.41l0,0c0.391-0.39,1.021-0.39,1.41,0l0,0c0.4,0.39,0.4,1.021,0,1.41l0,0     c-0.189,0.2-0.45,0.29-0.7,0.29l0,0C65.39,34.67,65.13,34.58,64.939,34.38z M67.06,32.26c-0.39-0.39-0.39-1.03,0-1.42l0,0     c0.391-0.39,1.021-0.39,1.42,0l0,0c0.38,0.39,0.38,1.03,0,1.42l0,0c-0.199,0.19-0.46,0.29-0.71,0.29l0,0     C67.51,32.55,67.26,32.45,67.06,32.26z M69.18,30.14c-0.39-0.39-0.39-1.03,0-1.42l0,0c0.39-0.39,1.03-0.39,1.42,0l0,0     c0.391,0.39,0.391,1.03,0,1.42l0,0c-0.2,0.19-0.45,0.29-0.71,0.29l0,0C69.63,30.43,69.38,30.33,69.18,30.14z M71.3,28.02     c-0.39-0.39-0.39-1.029,0-1.42l0,0c0.39-0.39,1.03-0.39,1.42,0l0,0c0.39,0.391,0.39,1.03,0,1.42l0,0     c-0.2,0.19-0.45,0.29-0.71,0.29l0,0C71.75,28.31,71.5,28.21,71.3,28.02z" fill="black"/></g>
            <g><path d="M35.77,36.5c-0.39-0.391-0.39-1.021,0-1.41l0,0c0.391-0.39,1.021-0.39,1.41,0l0,0     c0.39,0.39,0.39,1.02,0,1.41l0,0c-0.189,0.2-0.45,0.3-0.71,0.3l0,0C36.22,36.8,35.96,36.7,35.77,36.5z M33.64,34.38     c-0.39-0.39-0.39-1.021,0-1.41l0,0c0.391-0.39,1.03-0.39,1.42,0l0,0c0.391,0.39,0.391,1.021,0,1.41l0,0     c-0.2,0.2-0.45,0.29-0.71,0.29l0,0C34.1,34.67,33.84,34.58,33.64,34.38z M31.52,32.26c-0.39-0.39-0.39-1.03,0-1.41l0,0     c0.391-0.39,1.03-0.39,1.42,0l0,0c0.391,0.38,0.391,1.021,0,1.41l0,0c-0.199,0.2-0.449,0.29-0.71,0.29l0,0     C31.97,32.55,31.72,32.46,31.52,32.26z M29.399,30.14c-0.39-0.39-0.39-1.03,0-1.42l0,0c0.391-0.39,1.03-0.39,1.42,0l0,0     c0.391,0.39,0.391,1.03,0,1.42l0,0c-0.199,0.19-0.46,0.29-0.71,0.29l0,0C29.85,30.43,29.6,30.33,29.399,30.14z M27.28,28.02     c-0.391-0.39-0.391-1.029,0-1.42l0,0c0.39-0.39,1.029-0.39,1.409,0l0,0c0.391,0.391,0.391,1.03,0,1.42l0,0     c-0.189,0.19-0.449,0.29-0.699,0.29l0,0C27.729,28.31,27.479,28.21,27.28,28.02z" fill="black"/></g>
            <g><g><path d="M95.49,59.13l-45-25c-0.311-0.17-0.67-0.17-0.98,0l-45,25C4.2,59.3,4,59.64,4,60v5      c0,0.35,0.19,0.68,0.49,0.86c0.31,0.18,0.689,0.189,1,0.01L14,61.14l2-1.109L50,41.14L84,60.03l2,1.109l8.51,4.73      C94.67,65.96,94.83,66,95,66c0.18,0,0.35-0.05,0.51-0.14C95.81,65.68,96,65.35,96,65v-5C96,59.64,95.8,59.3,95.49,59.13z       M94,63.3L50.49,39.13C50.33,39.04,50.17,39,50,39s-0.33,0.04-0.49,0.13L6,63.3v-2.71l44-24.45l44,24.45V63.3z" fill="black"/></g>
                <g><path d="M35,74h-1.5v-9c0-0.553-0.447-1-1-1h-10c-0.553,0-1,0.447-1,1v9H20c-0.553,0-1,0.447-1,1s0.447,1,1,1      h2.5h10H35c0.553,0,1-0.447,1-1S35.553,74,35,74z M31.5,69h-3v-3h3V69z M26.5,66v3h-3v-3H26.5z M23.5,71h3v3h-3V71z M28.5,74v-3      h3v3H28.5z" fill="black"/>
                    <path d="M80,74h-1.5v-9c0-0.553-0.447-1-1-1h-10c-0.553,0-1,0.447-1,1v9H65c-0.553,0-1,0.447-1,1s0.447,1,1,1      h2.5h10H80c0.553,0,1-0.447,1-1S80.553,74,80,74z M76.5,69h-3v-3h3V69z M71.5,66v3h-3v-3H71.5z M68.5,71h3v3h-3V71z M73.5,74v-3      h3v3H73.5z"
                          fill="black"/></g>
                <g><path d="M44.68,68.51c0.26,0,0.51-0.1,0.71-0.29c0.391-0.39,0.391-1.03,0-1.42c-0.39-0.39-1.03-0.39-1.42,0      s-0.39,1.03,0,1.42C44.17,68.41,44.42,68.51,44.68,68.51z" fill="black"/>
                    <path d="M45.68,72.93c0.38-0.39,0.38-1.02,0-1.41c-0.399-0.39-1.03-0.39-1.42,0c-0.39,0.391-0.39,1.021,0,1.41      c0.2,0.2,0.45,0.29,0.71,0.29C45.22,73.22,45.479,73.13,45.68,72.93z"
                          fill="black"/>
                    <path d="M49.21,68.979c0.26,0,0.51-0.1,0.71-0.29c0.39-0.39,0.39-1.029,0-1.42c-0.39-0.38-1.03-0.38-1.42,0      c-0.391,0.391-0.391,1.03,0,1.42C48.7,68.88,48.95,68.979,49.21,68.979z"
                          fill="black"/>
                    <path d="M47.09,71.1c0.25,0,0.51-0.09,0.71-0.29c0.39-0.39,0.39-1.02,0-1.41c-0.4-0.39-1.03-0.39-1.42,0      c-0.39,0.391-0.39,1.021,0,1.41C46.58,71.01,46.83,71.1,47.09,71.1z"
                          fill="black"/>
                    <path d="M44.74,76.04c-0.391,0.39-0.391,1.02,0,1.41c0.199,0.199,0.449,0.29,0.71,0.29      c0.25,0,0.51-0.091,0.71-0.29c0.39-0.391,0.39-1.021,0-1.41C45.77,75.649,45.13,75.649,44.74,76.04z"
                          fill="black"/>
                    <path d="M46.859,73.91c-0.39,0.399-0.39,1.029,0,1.42c0.2,0.189,0.45,0.29,0.71,0.29      c0.261,0,0.511-0.101,0.711-0.29c0.39-0.391,0.39-1.021,0-1.42C47.89,73.52,47.25,73.52,46.859,73.91z"
                          fill="black"/>
                    <path d="M53.939,69.26c0.25,0,0.511-0.1,0.7-0.29c0.391-0.4,0.391-1.03,0-1.42c-0.39-0.39-1.02-0.39-1.41,0      c-0.39,0.39-0.39,1.02,0,1.42C53.42,69.16,53.68,69.26,53.939,69.26z"
                          fill="black"/>
                    <path d="M48.979,71.79c-0.39,0.39-0.39,1.029,0,1.42c0.2,0.189,0.45,0.29,0.71,0.29      c0.261,0,0.511-0.101,0.71-0.29c0.391-0.391,0.391-1.03,0-1.42C50.01,71.399,49.37,71.399,48.979,71.79z"
                          fill="black"/>
                    <path d="M51.81,71.38c0.26,0,0.51-0.1,0.71-0.29c0.391-0.39,0.391-1.03,0-1.42c-0.39-0.39-1.02-0.39-1.42,0      c-0.39,0.39-0.39,1.03,0,1.42C51.3,71.28,51.56,71.38,51.81,71.38z"
                          fill="black"/>
                    <path d="M54.58,72.609c0.2,0.2,0.45,0.29,0.71,0.29c0.25,0,0.51-0.09,0.7-0.29c0.39-0.39,0.39-1.02,0-1.409      c-0.391-0.391-1.021-0.391-1.41,0C54.189,71.59,54.189,72.22,54.58,72.609z"
                          fill="black"/>
                    <path d="M53.87,74.729c0.39-0.39,0.39-1.02,0-1.41c-0.391-0.39-1.021-0.39-1.41,0      c-0.391,0.391-0.391,1.021,0,1.41c0.189,0.2,0.45,0.29,0.71,0.29C53.42,75.02,53.68,74.93,53.87,74.729z"
                          fill="black"/>
                    <path d="M51.75,76.85c0.39-0.39,0.39-1.02,0-1.41c-0.391-0.39-1.021-0.39-1.41,0c-0.39,0.391-0.39,1.021,0,1.41      c0.19,0.2,0.45,0.3,0.71,0.3C51.3,77.149,51.56,77.05,51.75,76.85z"
                          fill="black"/>
                    <path d="M48.92,79.27c0.26,0,0.52-0.1,0.71-0.3c0.39-0.38,0.39-1.02,0-1.41c-0.39-0.39-1.021-0.39-1.41,0      c-0.39,0.391-0.39,1.03,0,1.41C48.41,79.17,48.67,79.27,48.92,79.27z"
                          fill="black"/>
                    <path d="M44.68,83.51c0.26,0,0.51-0.1,0.71-0.29c0.391-0.39,0.391-1.03,0-1.42c-0.39-0.39-1.03-0.39-1.41,0      c-0.399,0.39-0.399,1.03,0,1.42C44.17,83.41,44.43,83.51,44.68,83.51z"
                          fill="black"/>
                    <path d="M46.8,81.39c0.26,0,0.51-0.1,0.71-0.29c0.39-0.39,0.39-1.03,0-1.42s-1.03-0.39-1.42,0s-0.39,1.03,0,1.42      C46.29,81.29,46.55,81.39,46.8,81.39z"
                          fill="black"/>
                    <path d="M51.149,82.04c0.25,0,0.511-0.101,0.71-0.29c0.391-0.391,0.391-1.021,0-1.41      c-0.399-0.39-1.029-0.39-1.42,0c-0.39,0.39-0.39,1.02,0,1.41C50.64,81.939,50.89,82.04,51.149,82.04z"
                          fill="black"/>
                    <path d="M54.68,76.09c-0.39,0.39-0.39,1.03,0,1.42c0.2,0.19,0.46,0.29,0.71,0.29c0.26,0,0.51-0.1,0.71-0.29      c0.391-0.39,0.391-1.03,0-1.42C55.71,75.7,55.069,75.7,54.68,76.09z"
                          fill="black"/>
                    <path d="M53.27,79.92c0.261,0,0.511-0.101,0.71-0.29c0.391-0.39,0.391-1.03,0-1.42c-0.39-0.38-1.029-0.38-1.42,0      c-0.39,0.39-0.39,1.03,0,1.42C52.76,79.819,53.01,79.92,53.27,79.92z"
                          fill="black"/>
                    <path d="M46.2,84.58c-0.391,0.39-0.391,1.02,0,1.41c0.189,0.199,0.449,0.3,0.71,0.3c0.25,0,0.51-0.101,0.699-0.3      C48,85.6,48,84.97,47.609,84.58C47.22,84.189,46.59,84.189,46.2,84.58z"
                          fill="black"/>
                    <path d="M44.08,86.7c-0.391,0.39-0.391,1.02,0,1.409c0.189,0.2,0.45,0.301,0.7,0.301      c0.26,0,0.52-0.101,0.71-0.301c0.39-0.39,0.39-1.02,0-1.409C45.1,86.31,44.47,86.31,44.08,86.7z"
                          fill="black"/>
                    <path d="M49.729,83.87c0.391-0.391,0.391-1.021,0-1.41c-0.39-0.391-1.02-0.391-1.41,0      c-0.39,0.39-0.39,1.02,0,1.41c0.2,0.199,0.45,0.29,0.711,0.29C49.28,84.16,49.54,84.069,49.729,83.87z"
                          fill="black"/>
                    <path d="M54.729,83.87c0.391-0.391,0.391-1.021,0-1.41c-0.39-0.391-1.02-0.391-1.41,0      c-0.39,0.39-0.39,1.02,0,1.41c0.2,0.199,0.45,0.29,0.711,0.29C54.28,84.16,54.54,84.069,54.729,83.87z"
                          fill="black"/>
                    <path d="M51.2,84.58c-0.391,0.39-0.391,1.02,0,1.41c0.189,0.199,0.449,0.3,0.71,0.3c0.25,0,0.51-0.101,0.699-0.3      C53,85.6,53,84.97,52.609,84.58C52.22,84.189,51.59,84.189,51.2,84.58z"
                          fill="black"/>
                    <path d="M49.08,86.7c-0.391,0.39-0.391,1.02,0,1.409c0.189,0.2,0.45,0.301,0.7,0.301      c0.26,0,0.52-0.101,0.71-0.301c0.39-0.39,0.39-1.02,0-1.409C50.1,86.31,49.47,86.31,49.08,86.7z"
                          fill="black"/>
                    <path d="M54.08,86.7c-0.391,0.39-0.391,1.02,0,1.409c0.189,0.2,0.45,0.301,0.7,0.301      c0.26,0,0.52-0.101,0.71-0.301c0.39-0.39,0.39-1.02,0-1.409C55.1,86.31,54.47,86.31,54.08,86.7z"
                          fill="black"/>
                    <path d="M95,89h-9V61.14l-2-1.109V89H58.5V65c0-0.553-0.447-1-1-1h-15c-0.553,0-1,0.447-1,1v24H16V60.03      l-2,1.109V89H5c-0.553,0-1,0.447-1,1s0.447,1,1,1h37.5h15H95c0.553,0,1-0.447,1-1S95.553,89,95,89z M53.489,89      c-0.038-0.062-0.066-0.128-0.119-0.181c-0.391-0.39-1.021-0.39-1.41,0c-0.053,0.053-0.081,0.119-0.12,0.181h-3.351      c-0.038-0.062-0.066-0.128-0.119-0.181c-0.391-0.39-1.021-0.39-1.41,0c-0.053,0.053-0.081,0.119-0.12,0.181H43.5v-4.045      c0.071-0.209,0.071-0.432,0-0.641v-4.487c0.193-0.032,0.386-0.104,0.54-0.258c0.39-0.39,0.39-1.02,0-1.409      c-0.151-0.151-0.343-0.226-0.54-0.26v-2.816c0.016-0.014,0.035-0.019,0.05-0.034c0.39-0.39,0.39-1.02,0-1.41      c-0.015-0.015-0.034-0.02-0.05-0.033v-3.653c0.071-0.21,0.071-0.437,0-0.646V66h2.532c0.025,0.032,0.037,0.07,0.067,0.1      c0.19,0.19,0.45,0.29,0.7,0.29c0.26,0,0.51-0.1,0.71-0.29c0.029-0.029,0.041-0.067,0.065-0.1h2.779      c0.029,0.208,0.106,0.41,0.266,0.569c0.199,0.19,0.449,0.29,0.71,0.29c0.26,0,0.51-0.1,0.71-0.29      c0.159-0.159,0.235-0.361,0.265-0.569h2.779c-0.042,0.299,0.036,0.61,0.266,0.84c0.19,0.2,0.45,0.3,0.71,0.3      c0.151,0,0.3-0.049,0.44-0.121v13.098c-0.354-0.134-0.773-0.063-1.061,0.224c-0.39,0.39-0.39,1.02,0,1.41      c0.2,0.189,0.45,0.29,0.71,0.29c0.117,0,0.237-0.026,0.351-0.069v2.409c-0.107,0.049-0.211,0.111-0.3,0.2      c-0.391,0.39-0.391,1.02,0,1.41c0.087,0.091,0.19,0.155,0.3,0.205V89H53.489z"
                          fill="black"/></g></g></g></g></svg>
